<svg data-v-423bf9ae="" xmlns="http://www.w3.org/2000/svg" viewBox="0 0 593 90" class="iconLeft"><!----><!----><!----><g data-v-423bf9ae="" id="6e46842f-cdc4-4273-bdc0-cd3fe9e1e5cf" fill="#ffffff" transform="matrix(5.633803018697211,0,0,5.633803018697211,94.96901503912196,-17.056339021918767)"><path d="M11.81 16.19L14.88 8.31L13.34 8.31L10.91 15.20L8.31 8.31L7 8.31L4.38 15.20L1.97 8.31L0.44 8.31L3.50 16.19L5.25 16.19L7.66 9.73L10.06 16.19L11.81 16.19ZM15.53 12.20L15.53 12.20L15.53 12.20Q15.53 10.99 15.79 10.19L15.79 10.19L15.79 10.19Q16.05 9.40 16.63 8.93L16.63 8.93L16.63 8.93Q17.20 8.47 18.12 8.28L18.12 8.28L18.12 8.28Q19.03 8.09 20.34 8.09L20.34 8.09L20.34 8.09Q21.66 8.09 22.57 8.28L22.57 8.28L22.57 8.28Q23.49 8.47 24.06 8.93L24.06 8.93L24.06 8.93Q24.64 9.40 24.90 10.19L24.90 10.19L24.90 10.19Q25.16 10.99 25.16 12.20L25.16 12.20L25.16 12.20Q25.16 13.41 24.90 14.21L24.90 14.21L24.90 14.21Q24.64 15.00 24.06 15.48L24.06 15.48L24.06 15.48Q23.49 15.95 22.57 16.14L22.57 16.14L22.57 16.14Q21.66 16.34 20.34 16.34L20.34 16.34L20.34 16.34Q19.03 16.34 18.12 16.14L18.12 16.14L18.12 16.14Q17.20 15.95 16.63 15.48L16.63 15.48L16.63 15.48Q16.05 15.00 15.79 14.21L15.79 14.21L15.79 14.21Q15.53 13.41 15.53 12.20ZM16.84 12.20L16.84 12.20L16.84 12.20Q16.84 12.85 16.89 13.34L16.89 13.34L16.89 13.34Q16.94 13.82 17.07 14.17L17.07 14.17L17.07 14.17Q17.21 14.52 17.45 14.74L17.45 14.74L17.45 14.74Q17.68 14.96 18.07 15.09L18.07 15.09L18.07 15.09Q18.46 15.22 19.02 15.26L19.02 15.26L19.02 15.26Q19.58 15.31 20.34 15.31L20.34 15.31L20.34 15.31Q21 15.31 21.52 15.28L21.52 15.28L21.52 15.28Q22.03 15.25 22.42 15.14L22.42 15.14L22.42 15.14Q22.80 15.03 23.08 14.83L23.08 14.83L23.08 14.83Q23.35 14.63 23.52 14.28L23.52 14.28L23.52 14.28Q23.69 13.93 23.77 13.42L23.77 13.42L23.77 13.42Q23.84 12.91 23.84 12.20L23.84 12.20L23.84 12.20Q23.84 11.49 23.77 11.00L23.77 11.00L23.77 11.00Q23.69 10.50 23.52 10.17L23.52 10.17L23.52 10.17Q23.35 9.83 23.08 9.64L23.08 9.64L23.08 9.64Q22.80 9.44 22.42 9.34L22.42 9.34L22.42 9.34Q22.03 9.24 21.52 9.21L21.52 9.21L21.52 9.21Q21 9.19 20.34 9.19L20.34 9.19L20.34 9.19Q19.69 9.19 19.17 9.21L19.17 9.21L19.17 9.21Q18.66 9.24 18.27 9.34L18.27 9.34L18.27 9.34Q17.88 9.44 17.61 9.64L17.61 9.64L17.61 9.64Q17.34 9.83 17.17 10.17L17.17 10.17L17.17 10.17Q17.00 10.50 16.92 11.00L16.92 11.00L16.92 11.00Q16.84 11.49 16.84 12.20ZM34.56 10.88L33.47 10.88L33.47 10.88Q33.47 10.38 33.40 10.06L33.40 10.06L33.40 10.06Q33.33 9.73 33.06 9.54L33.06 9.54L33.06 9.54Q32.79 9.34 32.27 9.27L32.27 9.27L32.27 9.27Q31.75 9.19 30.84 9.19L30.84 9.19L30.84 9.19Q29.96 9.19 29.41 9.34L29.41 9.34L29.41 9.34Q28.85 9.50 28.54 9.78L28.54 9.78L28.54 9.78Q28.23 10.06 28.11 10.45L28.11 10.45L28.11 10.45Q28 10.83 28 11.31L28 11.31L28 16.19L26.69 16.19L26.69 8.31L28 8.31L28 9.56L28 9.56Q28.07 9.35 28.25 9.10L28.25 9.10L28.25 9.10Q28.44 8.84 28.81 8.62L28.81 8.62L28.81 8.62Q29.19 8.39 29.79 8.24L29.79 8.24L29.79 8.24Q30.39 8.09 31.28 8.09L31.28 8.09L31.28 8.09Q32.31 8.09 32.95 8.27L32.95 8.27L32.95 8.27Q33.59 8.46 33.95 8.81L33.95 8.81L33.95 8.81Q34.31 9.16 34.44 9.68L34.44 9.68L34.44 9.68Q34.56 10.20 34.56 10.88L34.56 10.88ZM40.03 16.34L40.03 16.34L40.03 16.34Q38.72 16.34 37.80 16.15L37.80 16.15L37.80 16.15Q36.89 15.96 36.31 15.49L36.31 15.49L36.31 15.49Q35.74 15.03 35.48 14.24L35.48 14.24L35.48 14.24Q35.22 13.45 35.22 12.26L35.22 12.26L35.22 12.26Q35.22 11.03 35.48 10.23L35.48 10.23L35.48 10.23Q35.74 9.42 36.31 8.95L36.31 8.95L36.31 8.95Q36.89 8.48 37.80 8.29L37.80 8.29L37.80 8.29Q38.72 8.09 40.03 8.09L40.03 8.09L40.03 8.09Q40.96 8.09 41.59 8.19L41.59 8.19L41.59 8.19Q42.22 8.29 42.62 8.43L42.62 8.43L42.62 8.43Q43.02 8.57 43.23 8.74L43.23 8.74L43.23 8.74Q43.44 8.91 43.53 9.05L43.53 9.05L43.53 5.69L44.84 5.69L44.84 16.19L43.53 16.19L43.53 15.02L43.53 15.02Q43.53 15.02 43.20 15.41L43.20 15.41L43.20 15.41Q42.92 15.69 42.57 15.86L42.57 15.86L42.57 15.86Q42.22 16.03 41.59 16.18L41.59 16.18L41.59 16.18Q40.96 16.34 40.03 16.34ZM40.03 15.31L40.03 15.31L40.03 15.31Q40.69 15.31 41.20 15.28L41.20 15.28L41.20 15.28Q41.71 15.25 42.10 15.15L42.10 15.15L42.10 15.15Q42.49 15.05 42.76 14.84L42.76 14.84L42.76 14.84Q43.03 14.64 43.20 14.31L43.20 14.31L43.20 14.31Q43.37 13.97 43.45 13.48L43.45 13.48L43.45 13.48Q43.53 12.98 43.53 12.28L43.53 12.28L43.53 12.28Q43.53 11.56 43.45 11.05L43.45 11.05L43.45 11.05Q43.37 10.54 43.20 10.20L43.20 10.20L43.20 10.20Q43.03 9.85 42.76 9.65L42.76 9.65L42.76 9.65Q42.49 9.45 42.10 9.35L42.10 9.35L42.10 9.35Q41.71 9.24 41.20 9.21L41.20 9.21L41.20 9.21Q40.69 9.19 40.03 9.19L40.03 9.19L40.03 9.19Q39.27 9.19 38.71 9.24L38.71 9.24L38.71 9.24Q38.15 9.28 37.76 9.41L37.76 9.41L37.76 9.41Q37.37 9.53 37.13 9.75L37.13 9.75L37.13 9.75Q36.89 9.97 36.75 10.31L36.75 10.31L36.75 10.31Q36.62 10.65 36.58 11.13L36.58 11.13L36.58 11.13Q36.53 11.61 36.53 12.26L36.53 12.26L36.53 12.26Q36.53 12.91 36.58 13.38L36.58 13.38L36.58 13.38Q36.62 13.86 36.75 14.19L36.75 14.19L36.75 14.19Q36.89 14.53 37.13 14.75L37.13 14.75L37.13 14.75Q37.37 14.97 37.76 15.09L37.76 15.09L37.76 15.09Q38.15 15.22 38.71 15.26L38.71 15.26L38.71 15.26Q39.27 15.31 40.03 15.31ZM51.41 16.34L51.41 16.34L51.41 16.34Q50.46 16.34 49.84 16.21L49.84 16.21L49.84 16.21Q49.21 16.08 48.82 15.94L48.82 15.94L48.82 15.94Q48.42 15.79 48.21 15.47L48.21 15.47L48.21 15.47Q48.01 15.16 47.91 14.98L47.91 14.98L47.91 16.19L46.59 16.19L46.59 5.69L47.91 5.69L47.91 9.06L47.91 9.06Q48.00 8.91 48.20 8.75L48.20 8.75L48.20 8.75Q48.41 8.58 48.81 8.43L48.81 8.43L48.81 8.43Q49.21 8.29 49.84 8.19L49.84 8.19L49.84 8.19Q50.47 8.09 51.41 8.09L51.41 8.09L51.41 8.09Q52.72 8.09 53.63 8.29L53.63 8.29L53.63 8.29Q54.55 8.49 55.13 8.97L55.13 8.97L55.13 8.97Q55.70 9.45 55.96 10.25L55.96 10.25L55.96 10.25Q56.22 11.05 56.22 12.26L56.22 12.26L56.22 12.26Q56.22 13.45 55.96 14.24L55.96 14.24L55.96 14.24Q55.70 15.03 55.13 15.49L55.13 15.49L55.13 15.49Q54.55 15.96 53.63 16.15L53.63 16.15L53.63 16.15Q52.72 16.34 51.41 16.34ZM51.41 15.31L51.41 15.31L51.41 15.31Q52.17 15.31 52.73 15.26L52.73 15.26L52.73 15.26Q53.29 15.22 53.68 15.09L53.68 15.09L53.68 15.09Q54.07 14.97 54.31 14.75L54.31 14.75L54.31 14.75Q54.55 14.53 54.68 14.19L54.68 14.19L54.68 14.19Q54.82 13.86 54.86 13.38L54.86 13.38L54.86 13.38Q54.91 12.91 54.91 12.26L54.91 12.26L54.91 12.26Q54.91 11.62 54.86 11.14L54.86 11.14L54.86 11.14Q54.82 10.66 54.68 10.33L54.68 10.33L54.68 10.33Q54.55 9.99 54.31 9.77L54.31 9.77L54.31 9.77Q54.07 9.54 53.68 9.42L53.68 9.42L53.68 9.42Q53.29 9.29 52.73 9.24L52.73 9.24L52.73 9.24Q52.17 9.19 51.41 9.19L51.41 9.19L51.41 9.19Q50.75 9.19 50.24 9.23L50.24 9.23L50.24 9.23Q49.72 9.26 49.33 9.37L49.33 9.37L49.33 9.37Q48.95 9.47 48.68 9.68L48.68 9.68L48.68 9.68Q48.41 9.88 48.23 10.23L48.23 10.23L48.23 10.23Q48.06 10.57 47.98 11.07L47.98 11.07L47.98 11.07Q47.91 11.58 47.91 12.28L47.91 12.28L47.91 12.28Q47.91 12.98 47.98 13.48L47.98 13.48L47.98 13.48Q48.06 13.97 48.23 14.31L48.23 14.31L48.23 14.31Q48.41 14.64 48.68 14.84L48.68 14.84L48.68 14.84Q48.95 15.05 49.33 15.15L49.33 15.15L49.33 15.15Q49.72 15.25 50.24 15.28L50.24 15.28L50.24 15.28Q50.75 15.31 51.41 15.31ZM57.53 12.20L57.53 12.20L57.53 12.20Q57.53 10.99 57.79 10.19L57.79 10.19L57.79 10.19Q58.05 9.40 58.63 8.93L58.63 8.93L58.63 8.93Q59.20 8.47 60.12 8.28L60.12 8.28L60.12 8.28Q61.03 8.09 62.34 8.09L62.34 8.09L62.34 8.09Q63.66 8.09 64.57 8.28L64.57 8.28L64.57 8.28Q65.49 8.47 66.06 8.93L66.06 8.93L66.06 8.93Q66.64 9.40 66.90 10.19L66.90 10.19L66.90 10.19Q67.16 10.99 67.16 12.20L67.16 12.20L67.16 12.20Q67.16 13.41 66.90 14.21L66.90 14.21L66.90 14.21Q66.64 15.00 66.06 15.48L66.06 15.48L66.06 15.48Q65.49 15.95 64.57 16.14L64.57 16.14L64.57 16.14Q63.66 16.34 62.34 16.34L62.34 16.34L62.34 16.34Q61.03 16.34 60.12 16.14L60.12 16.14L60.12 16.14Q59.20 15.95 58.63 15.48L58.63 15.48L58.63 15.48Q58.05 15.00 57.79 14.21L57.79 14.21L57.79 14.21Q57.53 13.41 57.53 12.20ZM58.84 12.20L58.84 12.20L58.84 12.20Q58.84 12.85 58.89 13.34L58.89 13.34L58.89 13.34Q58.94 13.82 59.07 14.17L59.07 14.17L59.07 14.17Q59.21 14.52 59.45 14.74L59.45 14.74L59.45 14.74Q59.68 14.96 60.07 15.09L60.07 15.09L60.07 15.09Q60.46 15.22 61.02 15.26L61.02 15.26L61.02 15.26Q61.58 15.31 62.34 15.31L62.34 15.31L62.34 15.31Q63 15.31 63.52 15.28L63.52 15.28L63.52 15.28Q64.03 15.25 64.42 15.14L64.42 15.14L64.42 15.14Q64.80 15.03 65.08 14.83L65.08 14.83L65.08 14.83Q65.35 14.63 65.52 14.28L65.52 14.28L65.52 14.28Q65.69 13.93 65.77 13.42L65.77 13.42L65.77 13.42Q65.84 12.91 65.84 12.20L65.84 12.20L65.84 12.20Q65.84 11.49 65.77 11.00L65.77 11.00L65.77 11.00Q65.69 10.50 65.52 10.17L65.52 10.17L65.52 10.17Q65.35 9.83 65.08 9.64L65.08 9.64L65.08 9.64Q64.80 9.44 64.42 9.34L64.42 9.34L64.42 9.34Q64.03 9.24 63.52 9.21L63.52 9.21L63.52 9.21Q63 9.19 62.34 9.19L62.34 9.19L62.34 9.19Q61.69 9.19 61.17 9.21L61.17 9.21L61.17 9.21Q60.66 9.24 60.27 9.34L60.27 9.34L60.27 9.34Q59.88 9.44 59.61 9.64L59.61 9.64L59.61 9.64Q59.34 9.83 59.17 10.17L59.17 10.17L59.17 10.17Q59.00 10.50 58.92 11.00L58.92 11.00L58.92 11.00Q58.84 11.49 58.84 12.20ZM68.47 12.20L68.47 12.20L68.47 12.20Q68.47 10.99 68.73 10.19L68.73 10.19L68.73 10.19Q68.99 9.40 69.56 8.93L69.56 8.93L69.56 8.93Q70.14 8.47 71.05 8.28L71.05 8.28L71.05 8.28Q71.97 8.09 73.28 8.09L73.28 8.09L73.28 8.09Q74.59 8.09 75.51 8.28L75.51 8.28L75.51 8.28Q76.43 8.47 77 8.93L77 8.93L77 8.93Q77.57 9.40 77.83 10.19L77.83 10.19L77.83 10.19Q78.09 10.99 78.09 12.20L78.09 12.20L78.09 12.20Q78.09 13.41 77.83 14.21L77.83 14.21L77.83 14.21Q77.57 15.00 77 15.48L77 15.48L77 15.48Q76.43 15.95 75.51 16.14L75.51 16.14L75.51 16.14Q74.59 16.34 73.28 16.34L73.28 16.34L73.28 16.34Q71.97 16.34 71.05 16.14L71.05 16.14L71.05 16.14Q70.14 15.95 69.56 15.48L69.56 15.48L69.56 15.48Q68.99 15.00 68.73 14.21L68.73 14.21L68.73 14.21Q68.47 13.41 68.47 12.20ZM69.78 12.20L69.78 12.20L69.78 12.20Q69.78 12.85 69.83 13.34L69.83 13.34L69.83 13.34Q69.88 13.82 70.01 14.17L70.01 14.17L70.01 14.17Q70.14 14.52 70.38 14.74L70.38 14.74L70.38 14.74Q70.62 14.96 71.01 15.09L71.01 15.09L71.01 15.09Q71.40 15.22 71.96 15.26L71.96 15.26L71.96 15.26Q72.52 15.31 73.28 15.31L73.28 15.31L73.28 15.31Q73.94 15.31 74.45 15.28L74.45 15.28L74.45 15.28Q74.97 15.25 75.36 15.14L75.36 15.14L75.36 15.14Q75.74 15.03 76.02 14.83L76.02 14.83L76.02 14.83Q76.29 14.63 76.46 14.28L76.46 14.28L76.46 14.28Q76.62 13.93 76.70 13.42L76.70 13.42L76.70 13.42Q76.78 12.91 76.78 12.20L76.78 12.20L76.78 12.20Q76.78 11.49 76.70 11.00L76.70 11.00L76.70 11.00Q76.62 10.50 76.46 10.17L76.46 10.17L76.46 10.17Q76.29 9.83 76.02 9.64L76.02 9.64L76.02 9.64Q75.74 9.44 75.36 9.34L75.36 9.34L75.36 9.34Q74.97 9.24 74.45 9.21L74.45 9.21L74.45 9.21Q73.94 9.19 73.28 9.19L73.28 9.19L73.28 9.19Q72.63 9.19 72.11 9.21L72.11 9.21L72.11 9.21Q71.59 9.24 71.21 9.34L71.21 9.34L71.21 9.34Q70.82 9.44 70.55 9.64L70.55 9.64L70.55 9.64Q70.27 9.83 70.11 10.17L70.11 10.17L70.11 10.17Q69.94 10.50 69.86 11.00L69.86 11.00L69.86 11.00Q69.78 11.49 69.78 12.20ZM79.63 16.19L79.63 5.69L80.94 5.69L80.94 11.43L81.38 11.43L86.19 8.31L88.16 8.31L82.58 11.98L88.38 16.19L86.41 16.19L81.38 12.41L80.94 12.41L80.94 16.19L79.63 16.19Z"></path></g><!----><g data-v-423bf9ae="" id="97208a0d-51b4-4963-a721-a958ec4125ff" transform="matrix(1.0095798346944476,0,0,1.0095798346944476,-5.784176098994216,0)" stroke="none" fill="#25347B"><path d="M71.033 0H23.741C19.086 0 15 2.686 15 7.342v16.969c6-4.317 12.502-6.902 19.996-6.902 17.705 0 32.172 14.604 32.172 32.31C67.168 56 65.398 61 62.269 67h12.266C79.191 67 83 62.791 83 58.135V12.118L71.033 0z"></path><path d="M57.694 65.987a28.196 28.196 0 0 0 5.304-16.482c0-15.635-12.717-28.355-28.352-28.355-15.64 0-28.359 12.72-28.359 28.355 0 15.634 12.72 28.354 28.359 28.354a28.17 28.17 0 0 0 12.734-3.032L61.7 89.146l9.577-9.576-13.583-13.583zM34.646 68.83c-10.657 0-19.33-8.668-19.33-19.325 0-10.658 8.673-19.326 19.33-19.326 10.652 0 19.32 8.668 19.32 19.326.001 10.657-8.668 19.325-19.32 19.325z"></path></g><!----></svg>